<?xml version="1.0" encoding="UTF-8" standalone="no"?>
<svg
   width="151"
   height="44"
   viewBox="0 0 151 44"
   fill="none"
   version="1.1"
   id="svg5"
   sodipodi:docname="logo.svg"
   inkscape:version="1.3 (0e150ed6c4, 2023-07-21)"
   xmlns:inkscape="http://www.inkscape.org/namespaces/inkscape"
   xmlns:sodipodi="http://sodipodi.sourceforge.net/DTD/sodipodi-0.dtd"
   xmlns="http://www.w3.org/2000/svg"
   xmlns:svg="http://www.w3.org/2000/svg">
  <defs
     id="defs5" />
  <sodipodi:namedview
     id="namedview5"
     pagecolor="#ffffff"
     bordercolor="#000000"
     borderopacity="0.25"
     inkscape:showpageshadow="2"
     inkscape:pageopacity="0.0"
     inkscape:pagecheckerboard="0"
     inkscape:deskcolor="#d1d1d1"
     inkscape:zoom="8.0529801"
     inkscape:cx="78.356086"
     inkscape:cy="31.97574"
     inkscape:window-width="1366"
     inkscape:window-height="697"
     inkscape:window-x="-8"
     inkscape:window-y="-8"
     inkscape:window-maximized="1"
     inkscape:current-layer="svg5" />
  <path
     fill-rule="evenodd"
     clip-rule="evenodd"
     d="M6.15532 33.2946C5.25369 33.2946 4.58006 32.5707 4.58006 31.6701V24.0152C4.58006 19.5469 4.35206 20.6276 7.59585 17.4236C21.7317 4.06732 16.2425 4.24744 29.6149 18.054C32.0434 20.7627 31.9985 19.4534 31.9985 23.8316V31.6667C31.9985 32.5707 31.28 33.2912 30.3749 33.2912H6.15532V33.2946Z"
     fill="#605DC8"
     id="path1" />
  <path
     fill-rule="evenodd"
     clip-rule="evenodd"
     d="M30.896 35.1547L5.73676 35.2586C4.80059 35.2621 3.75042 35.8232 3.37388 36.5229L2.90061 37.4027L0.537726 41.7878L0.140457 42.529C-0.236085 43.2253 0.164639 43.7829 1.10081 43.7795L26.26 43.6756C27.1962 43.6721 28.2464 43.111 28.6229 42.4113L29.0962 41.5315L31.4591 37.1463L31.8563 36.4051C32.2329 35.7089 31.8321 35.1512 30.896 35.1547Z"
     fill="#605DC8"
     id="path2" />
  <path
     d="M2.54861 18.7156C2.23079 18.7156 1.90952 18.629 1.6228 18.4454C0.821352 17.9363 0.5899 16.859 1.09771 16.0554C1.46389 15.4701 2.70061 14.2231 5.50912 11.4659L6.39693 10.5931C8.73218 8.38318 10.5147 6.56817 11.9449 5.10646C15.1679 1.81587 16.7985 0.153263 18.9023 0.222538C20.9888 0.277958 22.4362 1.92325 25.3138 5.19651C26.7267 6.8037 28.4816 8.8023 30.8514 11.2477C30.8652 11.265 30.8825 11.2789 30.8963 11.2962C31.228 11.6634 31.715 12.2003 32.2401 12.7752C33.9743 14.6734 34.8206 15.6086 35.0763 15.9688C35.629 16.7413 35.4494 17.8185 34.679 18.3727C33.9087 18.9234 32.8343 18.7468 32.2816 17.9744C32.0639 17.6869 30.5889 16.0693 29.708 15.1064C29.1863 14.5348 28.6993 14.0014 28.3642 13.6308C25.9495 11.1369 24.1704 9.11057 22.7368 7.4826C21.0233 5.5325 19.4032 3.68977 18.809 3.67245H18.8021C18.1699 3.67245 16.3356 5.54289 14.3976 7.52417C12.9467 9.00666 11.14 10.8494 8.78054 13.0766L7.91001 13.9321C6.74929 15.0717 4.33804 17.4375 3.97877 17.9293C3.65405 18.4454 3.10824 18.7225 2.54515 18.7225L2.54861 18.7156Z"
     fill="#605DC8"
     id="path3" />
  <path
     fill-rule="evenodd"
     clip-rule="evenodd"
     d="M22.0976 33.2115V26.0588C22.0976 25.4665 21.6174 24.985 21.0267 24.985H15.1955C14.6047 24.985 14.1246 25.4665 14.1246 26.0588V33.2115C14.1246 33.2704 14.1142 33.3293 14.0969 33.3847H22.1252C22.1079 33.3293 22.0976 33.2739 22.0976 33.2115Z"
     fill="white"
     id="path4" />
  <text
     xml:space="preserve"
     style="font-size:24.898px;fill:#605dc8;fill-opacity:1;stroke-width:1.16709"
     x="44.384735"
     y="29.243671"
     id="text5"
     transform="scale(0.90055674,1.1104242)"><tspan
       id="tspan5"
       x="44.384735"
       y="29.243671"
       style="font-style:normal;font-variant:normal;font-weight:bold;font-stretch:normal;font-size:24.898px;font-family:'Liberation Sans';-inkscape-font-specification:'Liberation Sans Bold';fill:#605dc8;fill-opacity:1;stroke-width:1.16709"
       sodipodi:role="line">W O R D S</tspan></text>
</svg>
